<svg id="visual" viewBox="0 0 960 540" width="960" height="540" xmlns="http://www.w3.org/2000/svg" xmlns:xlink="http://www.w3.org/1999/xlink" version="1.1"><rect width="960" height="540" fill="#faf9f8"></rect><g><g transform="translate(629 249)"><path d="M80.4 -91.6C105.6 -74.6 128.5 -50.7 134 -23.1C139.4 4.4 127.4 35.5 110.4 62.6C93.4 89.6 71.4 112.6 46.7 116.6C21.9 120.5 -5.5 105.4 -31.4 93C-57.4 80.7 -82 71.1 -96.1 52.6C-110.1 34.1 -113.7 6.7 -109.1 -19.2C-104.5 -45.1 -91.7 -69.6 -72.2 -87.6C-52.6 -105.6 -26.3 -117.1 0.6 -117.9C27.6 -118.6 55.1 -108.6 80.4 -91.6Z" fill="#ece9d2"></path></g><g transform="translate(31 481)"><path d="M54.4 -67.4C69 -52.6 78.3 -34 82.2 -14.1C86.2 5.8 84.9 27 76.2 46C67.6 65 51.7 81.7 34.1 83.8C16.5 86 -2.9 73.5 -17.9 62.3C-33 51.2 -43.9 41.4 -55 28.6C-66.2 15.8 -77.7 0 -78.5 -17.1C-79.3 -34.2 -69.5 -52.6 -54.6 -67.3C-39.7 -82.1 -19.9 -93.2 0 -93.2C19.9 -93.3 39.8 -82.2 54.4 -67.4Z" fill="#ece9d2"></path></g><g transform="translate(192 195)"><path d="M48.4 -62.5C63.6 -44.9 77.5 -30.5 82 -13.3C86.5 4 81.5 24.1 73.1 45.3C64.6 66.6 52.5 88.9 35.8 92.5C19 96.2 -2.5 81.1 -21.9 69.9C-41.3 58.6 -58.6 51.2 -72.9 37C-87.3 22.7 -98.7 1.6 -96.6 -18.2C-94.5 -38.1 -78.9 -56.8 -60.6 -73.9C-42.2 -90.9 -21.1 -106.4 -2.3 -103.7C16.6 -101 33.2 -80.1 48.4 -62.5Z" fill="#ece9d2"></path></g><g transform="translate(944 539)"><path d="M60.9 -72.6C82.6 -54.3 106.6 -38.6 112 -18.2C117.3 2.2 104.1 27.3 88.3 47.3C72.4 67.3 53.8 82.2 31 94.5C8.1 106.9 -19 116.9 -45.1 112.4C-71.1 107.8 -96.1 88.9 -104.8 64.8C-113.6 40.8 -106.1 11.7 -97.5 -13.7C-88.9 -39.2 -79.2 -61 -62.7 -80.3C-46.3 -99.6 -23.1 -116.4 -1.8 -114.3C19.5 -112.2 39.1 -91 60.9 -72.6Z" fill="#ece9d2"></path></g><g transform="translate(908 84)"><path d="M74.4 -98.2C88.1 -77.2 85.1 -45.9 87.6 -17.5C90.1 10.8 98.1 36 92.7 61.1C87.2 86.1 68.3 110.9 44.3 118.1C20.2 125.3 -8.9 115 -29.7 99.6C-50.6 84.3 -63 63.9 -81.2 42.2C-99.3 20.4 -123.2 -2.8 -124.5 -26.6C-125.8 -50.4 -104.5 -74.8 -80 -93.8C-55.5 -112.9 -27.8 -126.5 1.3 -128C30.4 -129.6 60.8 -119.1 74.4 -98.2Z" fill="#ece9d2"></path></g><g transform="translate(402 482)"><path d="M41.8 -47.5C55.8 -38.1 69.9 -26.4 69.3 -14.5C68.7 -2.5 53.5 9.8 43.4 23C33.3 36.1 28.3 50.2 17.1 60C5.8 69.8 -11.8 75.4 -23.7 69.3C-35.6 63.2 -41.8 45.4 -47.4 30.1C-53 14.7 -58.2 1.8 -58.4 -12.6C-58.6 -27 -53.9 -42.8 -43.3 -52.8C-32.8 -62.7 -16.4 -66.9 -1.2 -65.4C13.9 -63.9 27.8 -56.8 41.8 -47.5Z" fill="#ece9d2"></path></g></g></svg>