<svg id="visual" viewBox="0 0 900 600" width="900" height="600" xmlns="http://www.w3.org/2000/svg" xmlns:xlink="http://www.w3.org/1999/xlink" version="1.1"><rect width="900" height="600" fill="#faf9f8"></rect><g><g transform="translate(824 122)"><path d="M80.5 -91C106.6 -74 131.7 -50.8 138.9 -22.6C146.1 5.6 135.4 38.8 117.9 67.3C100.5 95.8 76.3 119.6 47 131C17.7 142.4 -16.7 141.5 -48.8 131.1C-81 120.7 -110.8 101 -128 73C-145.3 45.1 -149.9 8.9 -142.5 -23.8C-135.2 -56.6 -115.9 -85.9 -90.2 -103C-64.5 -120 -32.2 -124.8 -2.5 -121.8C27.2 -118.8 54.4 -108 80.5 -91Z" fill="#fce9ed"></path></g><g transform="translate(666 458)"><path d="M78.5 -91.6C101.4 -74.3 119.4 -49.3 127.7 -19.9C136.1 9.5 134.7 43.2 119.9 69.4C105 95.7 76.7 114.4 46 124.8C15.4 135.2 -17.7 137.4 -44.5 126C-71.3 114.6 -91.7 89.7 -103.9 62.8C-116.1 35.9 -119.9 7 -116.1 -21.5C-112.3 -50 -100.8 -78.2 -80.2 -95.9C-59.5 -113.6 -29.8 -120.8 -1 -119.6C27.8 -118.4 55.6 -108.9 78.5 -91.6Z" fill="#fce9ed"></path></g><g transform="translate(31 489)"><path d="M48.2 -60.1C60.7 -47 67.7 -30.1 70 -12.9C72.3 4.2 70 21.6 61.7 35.3C53.4 49 39.3 59 23.4 65C7.6 71.1 -9.9 73.2 -27.8 69.6C-45.8 66.1 -64.2 56.9 -71.6 42.2C-79 27.6 -75.4 7.5 -69.4 -9.8C-63.5 -27 -55.1 -41.4 -43.2 -54.6C-31.2 -67.7 -15.6 -79.7 1.1 -81C17.9 -82.4 35.8 -73.2 48.2 -60.1Z" fill="#fce9ed"></path></g><g transform="translate(215 207)"><path d="M84.7 -100.1C105.4 -83.7 114.6 -52.7 120.5 -21C126.5 10.8 129.2 43.5 116.4 68.7C103.7 93.9 75.4 111.7 46 119.3C16.6 127 -13.9 124.5 -42.3 114.8C-70.7 105.1 -97 88.2 -110.9 64.1C-124.8 40 -126.3 8.7 -119.2 -19.2C-112.2 -47.2 -96.6 -71.9 -75.3 -88.1C-54 -104.4 -27 -112.2 2.5 -115.3C32.1 -118.3 64.1 -116.4 84.7 -100.1Z" fill="#fce9ed"></path></g><g transform="translate(506 13)"><path d="M47.5 -54.7C61 -45.3 71 -29.8 74.1 -12.9C77.3 4 73.7 22.2 64.5 36.3C55.2 50.3 40.4 60.1 24.2 65.6C8.1 71.1 -9.3 72.1 -24.2 66.6C-39 61.1 -51.4 49 -57.2 35C-63 21 -62.2 5.1 -59.1 -10.1C-56.1 -25.3 -50.9 -39.8 -40.6 -49.8C-30.4 -59.7 -15.2 -65.1 0.9 -66.2C17 -67.3 34 -64.1 47.5 -54.7Z" fill="#fce9ed"></path></g></g></svg>