<svg id="visual" viewBox="0 0 900 600" width="900" height="600" xmlns="http://www.w3.org/2000/svg" xmlns:xlink="http://www.w3.org/1999/xlink" version="1.1"><rect x="0" y="0" width="900" height="600" fill="#faf9f8"></rect><path d="M0 438L18.8 445.8C37.7 453.7 75.3 469.3 112.8 468.2C150.3 467 187.7 449 225.2 444.8C262.7 440.7 300.3 450.3 337.8 465.7C375.3 481 412.7 502 450.2 499.8C487.7 497.7 525.3 472.3 562.8 475.7C600.3 479 637.7 511 675.2 508.3C712.7 505.7 750.3 468.3 787.8 452C825.3 435.7 862.7 440.3 881.3 442.7L900 445L900 601L881.3 601C862.7 601 825.3 601 787.8 601C750.3 601 712.7 601 675.2 601C637.7 601 600.3 601 562.8 601C525.3 601 487.7 601 450.2 601C412.7 601 375.3 601 337.8 601C300.3 601 262.7 601 225.2 601C187.7 601 150.3 601 112.8 601C75.3 601 37.7 601 18.8 601L0 601Z" fill="#b38b1a" stroke-linecap="round" stroke-linejoin="miter"></path></svg>